<svg width="100" height="87" viewBox="0 0 100 87" fill="none" xmlns="http://www.w3.org/2000/svg">
    <g clip-path="url(#clip0_1041_15)">
        <path d="M98.957 11.7623C101.04 8.18421 99.8037 3.60897 96.1965 1.54318C92.5893 -0.522611 87.9767 0.703321 85.8941 4.28138L44.5533 75.3065C42.4707 78.8845 43.7066 83.4598 47.3138 85.5256C50.9211 87.5914 55.5336 86.3654 57.6163 82.7874L98.957 11.7623Z" fill="#601FC2" fill-opacity="0.9"/>
        <path d="M14.5995 4.26142C12.5169 0.683368 7.90434 -0.542564 4.2971 1.52323C0.689867 3.58902 -0.546063 8.16426 1.53658 11.7423L25.2796 52.5338C27.3622 56.1118 31.9748 57.3377 35.582 55.272C39.1893 53.2062 40.4252 48.6309 38.3425 45.0529L14.5995 4.26142Z" fill="#601FC2" fill-opacity="0.8"/>
    </g>
    <defs>
        <clipPath id="clip0_1041_15">
            <rect width="100" height="87" fill="white"/>
        </clipPath>
    </defs>
</svg>
